<?xml version="1.0" encoding="UTF-8"?>
<!--
Copyright (C) 2009/2010/2011 Ulrich Apel.
This work is distributed under the conditions of the Creative Commons
Attribution-Share Alike 3.0 Licence. This means you are free:
* to Share - to copy, distribute and transmit the work
* to Remix - to adapt the work

Under the following conditions:
* Attribution. You must attribute the work by stating your use of KanjiVG in
  your own copyright header and linking to KanjiVG's website
  (http://kanjivg.tagaini.net)
* Share Alike. If you alter, transform, or build upon this work, you may
  distribute the resulting work only under the same or similar license to this
  one.

See http://creativecommons.org/licenses/by-sa/3.0/ for more details.
-->
<!DOCTYPE svg PUBLIC "-//W3C//DTD SVG 1.0//EN" "http://www.w3.org/TR/2001/REC-SVG-20010904/DTD/svg10.dtd" [
<!ATTLIST g
xmlns:kvg CDATA #FIXED "http://kanjivg.tagaini.net"
kvg:element CDATA #IMPLIED
kvg:variant CDATA #IMPLIED
kvg:partial CDATA #IMPLIED
kvg:original CDATA #IMPLIED
kvg:part CDATA #IMPLIED
kvg:number CDATA #IMPLIED
kvg:tradForm CDATA #IMPLIED
kvg:radicalForm CDATA #IMPLIED
kvg:position CDATA #IMPLIED
kvg:radical CDATA #IMPLIED
kvg:phon CDATA #IMPLIED >
<!ATTLIST path
xmlns:kvg CDATA #FIXED "http://kanjivg.tagaini.net"
kvg:type CDATA #IMPLIED >
]>
<svg xmlns="http://www.w3.org/2000/svg" width="109" height="109" viewBox="0 0 109 109">
<g id="kvg:StrokePaths_05115" style="fill:none;stroke:#000000;stroke-width:3;stroke-linecap:round;stroke-linejoin:round;">
<g id="kvg:05115" kvg:element="儕">
	<g id="kvg:05115-g1" kvg:element="亻" kvg:variant="true" kvg:original="人" kvg:position="left" kvg:radical="general">
		<path id="kvg:05115-s1" kvg:type="㇒" d="M31.45,17c0.12,1.22,0.21,2.74-0.11,4.24C29.31,30.7,21.46,49,12,61.82"/>
		<path id="kvg:05115-s2" kvg:type="㇑" d="M25.98,42.61c0.59,0.61,0.76,1.97,0.76,3.23c0,13.02-0.29,40.15-0.29,48.9"/>
	</g>
	<g id="kvg:05115-g2" kvg:element="齊" kvg:position="right">
		<g id="kvg:05115-g3" kvg:element="亠" kvg:position="top">
			<path id="kvg:05115-s3" kvg:type="㇑a" d="M61.35,10.92c0.61,0.41,1.61,2.01,1.61,2.83c0,3.03-0.19,5.42-0.08,7.98"/>
			<path id="kvg:05115-s4" kvg:type="㇐" d="M38.07,23.62c1.35,0.34,2.53,0.58,4.09,0.47c9.46-0.65,35.75-4.12,46.51-4.79c1.58-0.1,2.39,0.04,3.57,0.6"/>
		</g>
		<g id="kvg:05115-g4" kvg:position="bottom">
			<path id="kvg:05115-s5" kvg:type="㇔" d="M54.97,27.97c2.05,1.24,5.3,5.08,5.81,7"/>
			<path id="kvg:05115-s6" kvg:type="㇒" d="M71.88,24.56c0.02,0.28,0.04,0.72-0.04,1.12c-0.43,2.36-2.9,7.54-6.28,10.72"/>
			<path id="kvg:05115-s7" kvg:type="㇑" d="M63.62,40.01c0.33,0.39,0.56,0.84,0.59,2.13c0.14,6.16-0.01,13.85-0.01,15.94"/>
			<g id="kvg:05115-g5" kvg:element="刀">
				<path id="kvg:05115-s8" kvg:type="㇆" d="M36.53,40.4c0.47,0.24,1.48,0.21,1.89,0.13c3.36-0.67,13.8-3.44,15.66-3.68c1.21-0.16,1.61,0.73,1.48,1.84c-0.7,6.18-2.15,13.81-4.28,18.51c-1.12,2.46-2.41,1.68-3.23-0.24"/>
				<path id="kvg:05115-s9" kvg:type="㇒" d="M45.29,39.71c0.02,0.41,0.06,1.06-0.05,1.65c-0.81,4.34-4.23,10.48-8.6,15.76"/>
			</g>
			<path id="kvg:05115-s10" kvg:type="㇒" d="M87.02,25.81c0.03,0.21,0.06,0.55-0.06,0.86c-0.68,1.81-5.23,6.23-10.59,8.66"/>
			<path id="kvg:05115-s11" kvg:type="㇙" d="M73.69,36.53c0.32,0.6,0.55,1.4,0.55,2.3s-0.08,12.56-0.08,13.96c0,1.4,0.08,1.8,1.11,0.8c1.03-1,6.45-5.46,7.08-6.06"/>
			<path id="kvg:05115-s12" kvg:type="㇏" d="M80.98,34.4c2.52,4.85,5.52,10.35,10.29,16.55c1.02,1.32,2.73,2,4.23,2.72"/>
			<path id="kvg:05115-s13" kvg:type="㇒" d="M46.01,62.13c0.61,0.55,0.83,1.95,0.83,2.54c0,10.08-0.6,23.33-8.2,30.58"/>
			<g id="kvg:05115-g6" kvg:element="二">
				<path id="kvg:05115-s14" kvg:type="㇐" d="M47.27,67.95c3.85-0.56,32.75-2.01,35.48-2.26"/>
				<path id="kvg:05115-s15" kvg:type="㇐" d="M45.98,79.56c3.47-0.13,32.09-2.34,36.73-2.54"/>
			</g>
			<path id="kvg:05115-s16" kvg:type="㇑" d="M82.05,56.39c0.54,0.55,1.42,2.66,1.42,3.75c0,4.31-0.01,36.9-0.07,40"/>
		</g>
	</g>
</g>
</g>
</svg>
