<?xml version="1.0" encoding="UTF-8"?>
<!--
Copyright (C) 2009/2010/2011 Ulrich Apel.
This work is distributed under the conditions of the Creative Commons
Attribution-Share Alike 3.0 Licence. This means you are free:
* to Share - to copy, distribute and transmit the work
* to Remix - to adapt the work

Under the following conditions:
* Attribution. You must attribute the work by stating your use of KanjiVG in
  your own copyright header and linking to KanjiVG's website
  (http://kanjivg.tagaini.net)
* Share Alike. If you alter, transform, or build upon this work, you may
  distribute the resulting work only under the same or similar license to this
  one.

See http://creativecommons.org/licenses/by-sa/3.0/ for more details.
-->
<!DOCTYPE svg PUBLIC "-//W3C//DTD SVG 1.0//EN" "http://www.w3.org/TR/2001/REC-SVG-20010904/DTD/svg10.dtd" [
<!ATTLIST g
xmlns:kvg CDATA #FIXED "http://kanjivg.tagaini.net"
kvg:element CDATA #IMPLIED
kvg:variant CDATA #IMPLIED
kvg:partial CDATA #IMPLIED
kvg:original CDATA #IMPLIED
kvg:part CDATA #IMPLIED
kvg:number CDATA #IMPLIED
kvg:tradForm CDATA #IMPLIED
kvg:radicalForm CDATA #IMPLIED
kvg:position CDATA #IMPLIED
kvg:radical CDATA #IMPLIED
kvg:phon CDATA #IMPLIED >
<!ATTLIST path
xmlns:kvg CDATA #FIXED "http://kanjivg.tagaini.net"
kvg:type CDATA #IMPLIED >
]>
<svg xmlns="http://www.w3.org/2000/svg" width="109" height="109" viewBox="0 0 109 109">
<g id="kvg:StrokePaths_054bc" style="fill:none;stroke:#000000;stroke-width:3;stroke-linecap:round;stroke-linejoin:round;">
<g id="kvg:054bc" kvg:element="咼">
	<path id="kvg:054bc-s1" kvg:type="㇑" d="M31.75,15.75c0.75,1.25,1.29,2.75,1.5,5C34,29,35.25,40,36,50.25"/>
	<path id="kvg:054bc-s2" kvg:type="㇕" d="M33.25,17.75c9.5-1,38.75-3.97,43-4.5c2-0.25,3.99,0.79,3.5,3c-1,4.5-3,24.5-4,31.5"/>
	<path id="kvg:054bc-s3" kvg:type="㇑" d="M54.37,29.25c1.09,0.5,1.74,2.25,1.96,3.25c0.22,1,0.14,10.25-0.08,16.5"/>
	<path id="kvg:054bc-s4" kvg:type="㇐" d="M56.5,30.25C60,30,72,28.25,77,27.75"/>
	<g id="kvg:054bc-g1" kvg:element="冂" kvg:position="kamae">
		<path id="kvg:054bc-s5" kvg:type="㇑" d="M20.25,50.25c0.75,1.25,1.66,3.26,2,5.5c0.5,3.25,3.5,34.75,4.5,40.25"/>
		<path id="kvg:054bc-s6" kvg:type="㇆a" d="M22.25,52.75c9.5-1,62.63-5.65,64.5-6c4-0.75,5.85,1.76,6,3C93.25,54,87.56,84.47,86,90c-2.75,9.75-4.25,4.75-7.25,1.5"/>
	</g>
	<g id="kvg:054bc-g2" kvg:element="口" kvg:radical="general">
		<path id="kvg:054bc-s7" kvg:type="㇑" d="M40.25,61.64c0.42,0.39,0.85,0.72,1.04,1.21C42.75,66.75,44,76.5,45,83.5"/>
		<path id="kvg:054bc-s8" kvg:type="㇕b" d="M42.38,63.78C52,62,63.5,60.5,68.44,59.99c1.8-0.19,2.89,1.11,2.63,2.21c-1.07,4.55-2.32,9.05-3.91,15.35"/>
		<path id="kvg:054bc-s9" kvg:type="㇐b" d="M45.2,80.58C51,80,61,79,68.96,78.11"/>
	</g>
</g>
</g>
</svg>
