<?xml version="1.0" encoding="UTF-8"?>
<!--
Copyright (C) 2009/2010/2011 Ulrich Apel.
This work is distributed under the conditions of the Creative Commons
Attribution-Share Alike 3.0 Licence. This means you are free:
* to Share - to copy, distribute and transmit the work
* to Remix - to adapt the work

Under the following conditions:
* Attribution. You must attribute the work by stating your use of KanjiVG in
  your own copyright header and linking to KanjiVG's website
  (http://kanjivg.tagaini.net)
* Share Alike. If you alter, transform, or build upon this work, you may
  distribute the resulting work only under the same or similar license to this
  one.

See http://creativecommons.org/licenses/by-sa/3.0/ for more details.
-->
<!DOCTYPE svg PUBLIC "-//W3C//DTD SVG 1.0//EN" "http://www.w3.org/TR/2001/REC-SVG-20010904/DTD/svg10.dtd" [
<!ATTLIST g
xmlns:kvg CDATA #FIXED "http://kanjivg.tagaini.net"
kvg:element CDATA #IMPLIED
kvg:variant CDATA #IMPLIED
kvg:partial CDATA #IMPLIED
kvg:original CDATA #IMPLIED
kvg:part CDATA #IMPLIED
kvg:number CDATA #IMPLIED
kvg:tradForm CDATA #IMPLIED
kvg:radicalForm CDATA #IMPLIED
kvg:position CDATA #IMPLIED
kvg:radical CDATA #IMPLIED
kvg:phon CDATA #IMPLIED >
<!ATTLIST path
xmlns:kvg CDATA #FIXED "http://kanjivg.tagaini.net"
kvg:type CDATA #IMPLIED >
]>
<svg xmlns="http://www.w3.org/2000/svg" width="109" height="109" viewBox="0 0 109 109">
<g id="kvg:StrokePaths_072e1" style="fill:none;stroke:#000000;stroke-width:3;stroke-linecap:round;stroke-linejoin:round;">
<g id="kvg:072e1" kvg:element="狡">
	<g id="kvg:072e1-g1" kvg:element="⺨" kvg:variant="true" kvg:original="犬" kvg:position="left" kvg:radical="general">
		<path id="kvg:072e1-s1" kvg:type="㇒" d="M35.05,16.75c0.07,0.6,0.31,1.77-0.14,2.42c-5.6,8.29-11.3,14.16-24.91,23.13"/>
		<path id="kvg:072e1-s2" kvg:type="㇁" d="M12.5,18.75c34,19.25,25.75,84.75,10.75,69"/>
		<path id="kvg:072e1-s3" kvg:type="㇒" d="M28.85,42.5c0.04,0.68,0.19,2.01-0.09,2.75c-3.55,9.43-7.15,16.1-15.76,26.3"/>
	</g>
	<g id="kvg:072e1-g2" kvg:element="交" kvg:position="right">
		<g id="kvg:072e1-g3" kvg:element="亠" kvg:position="top">
			<path id="kvg:072e1-s4" kvg:type="㇑a" d="M65.62,14.5c0.84,0.55,2.23,2.67,2.23,3.76c0,4.32-0.02,8.55-0.11,11.65"/>
			<path id="kvg:072e1-s5" kvg:type="㇐" d="M43,31.88c2.36,0.66,4.71,0.86,6.11,0.67c12.44-1.7,31.49-3.22,41.21-3.69c2.37-0.11,3.58,0.06,5.34,0.85"/>
		</g>
		<g id="kvg:072e1-g4" kvg:element="父" kvg:position="bottom">
			<path id="kvg:072e1-s6" kvg:type="㇒" d="M57.45,38.34c0.26,0.81-0.02,2.71-0.64,4.04c-2.67,5.74-6.52,11.2-12.05,15.57"/>
			<path id="kvg:072e1-s7" kvg:type="㇔" d="M76.77,37.98c7.58,5.21,13.84,11.22,17.63,17.54"/>
			<path id="kvg:072e1-s8" kvg:type="㇒" d="M78.58,49.91c0.47,0.98,0.64,2.71-0.15,4.45C71.25,70.25,59,83.5,42.25,94.4"/>
			<path id="kvg:072e1-s9" kvg:type="㇏" d="M52.09,58.02c5.91,0.48,25.43,24.72,37.67,34c2.3,1.75,4,1.72,5.99,1.87"/>
		</g>
	</g>
</g>
</g>
</svg>
