<?xml version="1.0" encoding="UTF-8"?>
<!--
Copyright (C) 2009/2010/2011 Ulrich Apel.
This work is distributed under the conditions of the Creative Commons
Attribution-Share Alike 3.0 Licence. This means you are free:
* to Share - to copy, distribute and transmit the work
* to Remix - to adapt the work

Under the following conditions:
* Attribution. You must attribute the work by stating your use of KanjiVG in
  your own copyright header and linking to KanjiVG's website
  (http://kanjivg.tagaini.net)
* Share Alike. If you alter, transform, or build upon this work, you may
  distribute the resulting work only under the same or similar license to this
  one.

See http://creativecommons.org/licenses/by-sa/3.0/ for more details.
-->
<!DOCTYPE svg PUBLIC "-//W3C//DTD SVG 1.0//EN" "http://www.w3.org/TR/2001/REC-SVG-20010904/DTD/svg10.dtd" [
<!ATTLIST g
xmlns:kvg CDATA #FIXED "http://kanjivg.tagaini.net"
kvg:element CDATA #IMPLIED
kvg:variant CDATA #IMPLIED
kvg:partial CDATA #IMPLIED
kvg:original CDATA #IMPLIED
kvg:part CDATA #IMPLIED
kvg:number CDATA #IMPLIED
kvg:tradForm CDATA #IMPLIED
kvg:radicalForm CDATA #IMPLIED
kvg:position CDATA #IMPLIED
kvg:radical CDATA #IMPLIED
kvg:phon CDATA #IMPLIED >
<!ATTLIST path
xmlns:kvg CDATA #FIXED "http://kanjivg.tagaini.net"
kvg:type CDATA #IMPLIED >
]>
<svg xmlns="http://www.w3.org/2000/svg" width="109" height="109" viewBox="0 0 109 109">
<g id="kvg:StrokePaths_07a57" style="fill:none;stroke:#000000;stroke-width:3;stroke-linecap:round;stroke-linejoin:round;">
<g id="kvg:07a57" kvg:element="穗">
	<g id="kvg:07a57-g1" kvg:element="禾" kvg:position="left" kvg:radical="general">
		<g id="kvg:07a57-g2" kvg:element="丿" kvg:position="top">
			<path id="kvg:07a57-s1" kvg:type="㇒" d="M38.5,15.5c0.07,0.34,0.27,0.98-0.15,1.37C34.5,20.5,26,25.75,12.75,30"/>
		</g>
		<g id="kvg:07a57-g3" kvg:element="木" kvg:position="bottom">
			<path id="kvg:07a57-s2" kvg:type="㇐" d="M12.37,41.75c0.47,0.19,1.74,0.5,3,0.57c3.47,0.19,16.58-1.9,25.25-2.85c1.26-0.14,1.57-0.19,2.36,0"/>
			<path id="kvg:07a57-s3" kvg:type="㇑" d="M29.33,26.5c0.37,0.43,0.58,1.95,0.66,2.82c0.07,0.87,0,61.51-0.07,66.93"/>
			<path id="kvg:07a57-s4" kvg:type="㇒" d="M30,45c-4,11.31-10.69,25.25-19.75,34.5"/>
			<path id="kvg:07a57-s5" kvg:type="㇔/㇏" d="M31,48c5.24,3.03,9.68,9.1,12.5,13"/>
		</g>
	</g>
	<g id="kvg:07a57-g4" kvg:element="惠" kvg:position="right">
		<g id="kvg:07a57-g5" kvg:position="top">
			<g id="kvg:07a57-g6" kvg:element="十" kvg:part="1">
				<path id="kvg:07a57-s6" kvg:type="㇐" d="M45,22.67c0.93,0.29,2.63,0.34,3.55,0.29c10.83-0.65,23.81-2.54,36.95-3.29c1.54-0.09,2.47,0.14,3.25,0.28"/>
			</g>
			<g id="kvg:07a57-g7" kvg:element="日">
				<path id="kvg:07a57-s7" kvg:type="㇑" d="M48.85,32.78c0.66,0.42,1.5,1.97,1.62,2.52c0.89,3.98,1.97,12.54,3.22,20.06"/>
				<path id="kvg:07a57-s8" kvg:type="㇕a" d="M50.04,33.66c8.85-0.86,27.78-3.42,33.82-3.56c2.5-0.06,3.01,1.17,2.9,2.52c-0.37,4.61-1.27,12.18-3.25,19.75"/>
				<path id="kvg:07a57-s9" kvg:type="㇐a" d="M52.25,43.39c6.62-0.19,20.46-2.85,32.93-2.85"/>
				<path id="kvg:07a57-s10" kvg:type="㇐a" d="M54.06,52.91c7.09-0.52,19.46-2.08,28.69-2.08"/>
			</g>
			<g id="kvg:07a57-g8" kvg:element="十" kvg:part="2">
				<path id="kvg:07a57-s11" kvg:type="㇑" d="M64.82,10c0.85,0.53,2.33,2.5,2.33,5.07c0,1.08-0.11,42.24-0.28,48.93"/>
			</g>
			<path id="kvg:07a57-s12" kvg:type="㇐" d="M46.51,67.97c0.83,1.49,1.46,2.05,2.74,1.76c4.92-1.12,26.85-7.65,32.04-8.99"/>
			<path id="kvg:07a57-s13" kvg:type="㇔" d="M75.25,55.5c5.38,2.16,13.9,8.89,15.25,12.25"/>
		</g>
		<g id="kvg:07a57-g9" kvg:element="心" kvg:position="bottom">
			<path id="kvg:07a57-s14" kvg:type="㇔" d="M47.25,79.25c0.42,2.22-4.17,12.04-7.5,15.75"/>
			<path id="kvg:07a57-s15" kvg:type="㇃" d="M54.5,76.75c4.52,10.2,11.68,19.06,29.12,19.18c8.41,0.06,8.4-5.54,1.38-10.18"/>
			<path id="kvg:07a57-s16" kvg:type="㇔a" d="M68.82,74.25c1.7,6.05,4.17,12.09,5.99,2.83"/>
			<path id="kvg:07a57-s17" kvg:type="㇔" d="M86.75,75.75c4.29,2.37,7.5,4.52,10.99,11.84"/>
		</g>
	</g>
</g>
</g>
</svg>
