<?xml version="1.0" encoding="UTF-8"?>
<!--
Copyright (C) 2009/2010/2011 Ulrich Apel.
This work is distributed under the conditions of the Creative Commons
Attribution-Share Alike 3.0 Licence. This means you are free:
* to Share - to copy, distribute and transmit the work
* to Remix - to adapt the work

Under the following conditions:
* Attribution. You must attribute the work by stating your use of KanjiVG in
  your own copyright header and linking to KanjiVG's website
  (http://kanjivg.tagaini.net)
* Share Alike. If you alter, transform, or build upon this work, you may
  distribute the resulting work only under the same or similar license to this
  one.

See http://creativecommons.org/licenses/by-sa/3.0/ for more details.
-->
<!DOCTYPE svg PUBLIC "-//W3C//DTD SVG 1.0//EN" "http://www.w3.org/TR/2001/REC-SVG-20010904/DTD/svg10.dtd" [
<!ATTLIST g
xmlns:kvg CDATA #FIXED "http://kanjivg.tagaini.net"
kvg:element CDATA #IMPLIED
kvg:variant CDATA #IMPLIED
kvg:partial CDATA #IMPLIED
kvg:original CDATA #IMPLIED
kvg:part CDATA #IMPLIED
kvg:number CDATA #IMPLIED
kvg:tradForm CDATA #IMPLIED
kvg:radicalForm CDATA #IMPLIED
kvg:position CDATA #IMPLIED
kvg:radical CDATA #IMPLIED
kvg:phon CDATA #IMPLIED >
<!ATTLIST path
xmlns:kvg CDATA #FIXED "http://kanjivg.tagaini.net"
kvg:type CDATA #IMPLIED >
]>
<svg xmlns="http://www.w3.org/2000/svg" width="109" height="109" viewBox="0 0 109 109">
<g id="kvg:StrokePaths_08f42" style="fill:none;stroke:#000000;stroke-width:3;stroke-linecap:round;stroke-linejoin:round;">
<g id="kvg:08f42" kvg:element="轂">
	<g id="kvg:08f42-g1" kvg:position="left">
		<g id="kvg:08f42-g2" kvg:element="士" kvg:position="top">
			<path id="kvg:08f42-s1" kvg:type="㇐" d="M15.25,18.01c0.98,0.15,2.79,0.62,3.78,0.53C24.75,18,37,17.75,44.55,17.21c1.64-0.12,2.63-0.02,3.45,0.04"/>
			<path id="kvg:08f42-s2" kvg:type="㇑a" d="M30.03,10.88c0.9,0.29,1.44,1.5,1.62,2.21c0.18,0.7,0.11,12.75,0.02,15.01"/>
			<path id="kvg:08f42-s3" kvg:type="㇐" d="M18.19,28.8c0.94,0.14,2.66,0.54,3.6,0.5c4.46-0.19,14.21-1.22,19.36-1.29c1.56-0.02,2.5-0.04,3.28,0.02"/>
		</g>
		<g id="kvg:08f42-g3" kvg:position="bottom">
			<g id="kvg:08f42-g4" kvg:element="冖">
				<path id="kvg:08f42-s4" kvg:type="㇔" d="M14.5,34.95c-0.06,3.17-1.1,10.97-2.5,14.3"/>
				<path id="kvg:08f42-s5" kvg:type="㇆" d="M14.43,36.82C22.5,35.75,39.5,35,50.39,34.4c5.42-0.3,1.21,4.2-0.81,6.62"/>
			</g>
			<path id="kvg:08f42-s6" kvg:type="㇐" d="M18.25,44.06c0.81,0.33,2.31,0.28,3.12,0.33c4.45,0.26,13.88-0.89,18.77-1.62c1.34-0.2,2.17,0.16,2.85,0.32"/>
			<g id="kvg:08f42-g5" kvg:element="車" kvg:radical="tradit">
				<path id="kvg:08f42-s7" kvg:type="㇐" d="M15.78,54.44c0.7,0.23,2.48,0.75,3.18,0.73c4.53-0.17,15.38-2.03,25.3-2.63c1.16-0.07,1.87,0.11,2.45,0.22"/>
				<path id="kvg:08f42-s8" kvg:type="㇑" d="M17.74,61.5c0.45,0.3,1.03,1.44,1.12,1.83c0.62,2.89,1.36,9.12,2.23,14.6"/>
				<path id="kvg:08f42-s9" kvg:type="㇕a" d="M19.49,62.59c6.92-0.58,21.23-2.81,25.96-2.9c1.96-0.04,2.36,0.79,2.27,1.7c-0.29,3.12-0.99,8.23-2.54,13.34"/>
				<path id="kvg:08f42-s10" kvg:type="㇐a" d="M21.13,69.82c5.22-0.15,15.62-2.76,25.46-2.76"/>
				<path id="kvg:08f42-s11" kvg:type="㇐a" d="M21.13,76.03c5.76-0.57,15.12-1.53,24.05-2.41"/>
				<path id="kvg:08f42-s12" kvg:type="㇐" d="M11.5,84.12c1.23,0.58,3.46,0.6,4.7,0.58c12.29-0.17,23.3-2.2,32-3.12c2.03-0.21,3.27-0.22,4.3,0.06"/>
				<path id="kvg:08f42-s13" kvg:type="㇑" d="M31.6,48c0.43,0.36,1.33,2.69,1.42,3.4c0.09,0.72-0.06,42.36-0.14,46.85"/>
			</g>
		</g>
	</g>
	<g id="kvg:08f42-g6" kvg:element="殳" kvg:position="right" kvg:radical="nelson">
		<g id="kvg:08f42-g7" kvg:element="几" kvg:position="top">
			<g id="kvg:08f42-g8" kvg:element="丿">
				<path id="kvg:08f42-s14" kvg:type="㇒" d="M61.14,16.35c0.02,0.71,0.48,1.82,0.46,2.84c-0.18,10.56-1.1,23.96-6.17,28.67"/>
			</g>
			<path id="kvg:08f42-s15" kvg:type="㇈b" d="M61.98,17.78c2.12,0.28,10.52-1.53,14.12-1.9c2.27-0.23,3.45,0.83,2.97,2.62c-1.07,3.99-2.14,8.24-2.14,14.37c0,9.87,0.82,11.14,9.55,11.14c8.51,0,7.61-2.01,7.61-10.36"/>
		</g>
		<g id="kvg:08f42-g9" kvg:element="又" kvg:position="bottom">
			<path id="kvg:08f42-s16" kvg:type="㇇" d="M55.33,55.07c1.48,0.36,1.62,0.45,4.62,0.36c5.55-0.17,19.42-2.9,21.46-3.44c2.03-0.54,3.68,2.07,2.77,3.92C74.81,74.99,61.74,85.8,44,94.67"/>
			<path id="kvg:08f42-s17" kvg:type="㇏" d="M55.85,61.9c3.53,0.81,20.79,22.42,33.09,31.27c1.91,1.38,3.31,2.3,5.09,2.76"/>
		</g>
	</g>
</g>
</g>
</svg>
