<?xml version="1.0" encoding="UTF-8"?>
<!--
Copyright (C) 2009/2010/2011 Ulrich Apel.
This work is distributed under the conditions of the Creative Commons
Attribution-Share Alike 3.0 Licence. This means you are free:
* to Share - to copy, distribute and transmit the work
* to Remix - to adapt the work

Under the following conditions:
* Attribution. You must attribute the work by stating your use of KanjiVG in
  your own copyright header and linking to KanjiVG's website
  (http://kanjivg.tagaini.net)
* Share Alike. If you alter, transform, or build upon this work, you may
  distribute the resulting work only under the same or similar license to this
  one.

See http://creativecommons.org/licenses/by-sa/3.0/ for more details.
-->
<!DOCTYPE svg PUBLIC "-//W3C//DTD SVG 1.0//EN" "http://www.w3.org/TR/2001/REC-SVG-20010904/DTD/svg10.dtd" [
<!ATTLIST g
xmlns:kvg CDATA #FIXED "http://kanjivg.tagaini.net"
kvg:element CDATA #IMPLIED
kvg:variant CDATA #IMPLIED
kvg:partial CDATA #IMPLIED
kvg:original CDATA #IMPLIED
kvg:part CDATA #IMPLIED
kvg:number CDATA #IMPLIED
kvg:tradForm CDATA #IMPLIED
kvg:radicalForm CDATA #IMPLIED
kvg:position CDATA #IMPLIED
kvg:radical CDATA #IMPLIED
kvg:phon CDATA #IMPLIED >
<!ATTLIST path
xmlns:kvg CDATA #FIXED "http://kanjivg.tagaini.net"
kvg:type CDATA #IMPLIED >
]>
<svg xmlns="http://www.w3.org/2000/svg" width="109" height="109" viewBox="0 0 109 109">
<g id="kvg:StrokePaths_09022" style="fill:none;stroke:#000000;stroke-width:3;stroke-linecap:round;stroke-linejoin:round;">
<g id="kvg:09022" kvg:element="逢">
	<g id="kvg:09022-g1" kvg:element="夆" kvg:position="nyoc">
		<g id="kvg:09022-g2" kvg:element="夂">
			<path id="kvg:09022-s1" kvg:type="㇒" d="M56.08,11.75c0.1,1.2-0.25,2.52-0.82,3.61C52.5,20.62,47.75,27.38,40,33.92"/>
			<path id="kvg:09022-s2" kvg:type="㇇" d="M55.04,18.98c1.71,0.19,2.86,0.16,4.59-0.15c3.46-0.63,9.35-2.19,12.17-2.88c2.39-0.59,3.07,1.17,2.46,2.77c-3.35,8.75-20.37,24.94-35.3,29.45"/>
			<path id="kvg:09022-s3" kvg:type="㇏" d="M50.67,26.03C54.36,26,72.69,38.48,82.75,43.59c3.5,1.78,6.5,3.03,10.04,4.03"/>
		</g>
		<g id="kvg:09022-g3" kvg:element="丰">
			<g id="kvg:09022-g4" kvg:element="三">
				<g id="kvg:09022-g5" kvg:element="一" kvg:position="top">
					<path id="kvg:09022-s4" kvg:type="㇐" d="M49.17,51.93c1.6,0.73,4.26,0.43,5.96,0.24c6.67-0.76,13.46-1.6,19.26-2.34c1.58-0.2,3.35-0.65,4.93-0.21"/>
				</g>
				<g id="kvg:09022-g6" kvg:position="bottom">
					<g id="kvg:09022-g7" kvg:element="一">
						<path id="kvg:09022-s5" kvg:type="㇐" d="M48.26,62.88c1.54,0.71,4.13,0.45,5.77,0.26c6.99-0.8,13.99-1.95,19.98-2.71c1.49-0.19,3.15-0.53,4.64-0.12"/>
					</g>
					<g id="kvg:09022-g8" kvg:element="一">
						<path id="kvg:09022-s6" kvg:type="㇐" d="M42.74,74.8c2.5,1.15,5.32,0.47,7.88,0.06c8.76-1.39,19.28-2.68,28.02-3.59c2.31-0.24,4.34-0.29,6.6,0.33"/>
					</g>
				</g>
			</g>
			<g id="kvg:09022-g9" kvg:element="丨">
				<path id="kvg:09022-s7" kvg:type="㇑" d="M62.81,42.19c1.12,1.12,1.27,2.31,1.27,3.67c0,6.15,0,23.54,0,35.01c0,2.62,0,4.92,0,6.72"/>
			</g>
		</g>
	</g>
	<g id="kvg:09022-g10" kvg:element="辶" kvg:position="nyo" kvg:radical="general">
		<path id="kvg:09022-s8" kvg:type="㇔" d="M19.71,12.5c3.63,1.74,9.38,7.17,10.29,9.88"/>
		<path id="kvg:09022-s9" kvg:type="㇔" d="M12.96,35c4.34,0.99,11.21,4.09,12.29,5.63"/>
		<path id="kvg:09022-s10" kvg:type="㇋" d="M13.5,55.53c2.25,0.88,3.75,0.44,4.75,0.22c1-0.22,6.5-3.07,8-3.51s3.48,0.93,2.75,2.41c-7,14.22-7.88,7.35-0.25,16.67c0.96,1.17,0.75,2.41-0.75,3.51s-9,7.24-10.5,7.67"/>
		<path id="kvg:09022-s11" kvg:type="㇏" d="M13.25,84.17c3.03-0.58,8.98-1.47,13.63-0.87c7.25,0.94,30.36,8.15,34.83,9.64c12.12,4.04,20.17,5.18,30.29,4.92"/>
	</g>
</g>
</g>
</svg>
