<?xml version="1.0" encoding="UTF-8"?>
<!--
Copyright (C) 2009/2010/2011 Ulrich Apel.
This work is distributed under the conditions of the Creative Commons
Attribution-Share Alike 3.0 Licence. This means you are free:
* to Share - to copy, distribute and transmit the work
* to Remix - to adapt the work

Under the following conditions:
* Attribution. You must attribute the work by stating your use of KanjiVG in
  your own copyright header and linking to KanjiVG's website
  (http://kanjivg.tagaini.net)
* Share Alike. If you alter, transform, or build upon this work, you may
  distribute the resulting work only under the same or similar license to this
  one.

See http://creativecommons.org/licenses/by-sa/3.0/ for more details.
-->
<!DOCTYPE svg PUBLIC "-//W3C//DTD SVG 1.0//EN" "http://www.w3.org/TR/2001/REC-SVG-20010904/DTD/svg10.dtd" [
<!ATTLIST g
xmlns:kvg CDATA #FIXED "http://kanjivg.tagaini.net"
kvg:element CDATA #IMPLIED
kvg:variant CDATA #IMPLIED
kvg:partial CDATA #IMPLIED
kvg:original CDATA #IMPLIED
kvg:part CDATA #IMPLIED
kvg:number CDATA #IMPLIED
kvg:tradForm CDATA #IMPLIED
kvg:radicalForm CDATA #IMPLIED
kvg:position CDATA #IMPLIED
kvg:radical CDATA #IMPLIED
kvg:phon CDATA #IMPLIED >
<!ATTLIST path
xmlns:kvg CDATA #FIXED "http://kanjivg.tagaini.net"
kvg:type CDATA #IMPLIED >
]>
<svg xmlns="http://www.w3.org/2000/svg" width="109" height="109" viewBox="0 0 109 109">
<g id="kvg:StrokePaths_095a7" style="fill:none;stroke:#000000;stroke-width:3;stroke-linecap:round;stroke-linejoin:round;">
<g id="kvg:095a7" kvg:element="閧">
	<g id="kvg:095a7-g1" kvg:element="門" kvg:position="kamae" kvg:radical="general">
		<g id="kvg:095a7-g2" kvg:position="left">
			<path id="kvg:095a7-s1" kvg:type="㇑" d="M18.39,15.29c0.73,0.46,1.28,2.98,1.43,3.9c0.15,0.93,0.41,72.14,0.26,77.94"/>
			<path id="kvg:095a7-s2" kvg:type="㇕a" d="M20.02,17.27c2.44-0.11,17.27-2.85,19.49-2.97c1.85-0.11,2.81,0.97,2.9,1.83c0.14,1.31-1.54,25.34-1.54,25.99"/>
			<path id="kvg:095a7-s3" kvg:type="㇐a" d="M20.45,29.28c5.99-0.63,14.62-2.27,20.38-2.94"/>
			<path id="kvg:095a7-s4" kvg:type="㇐a" d="M20.02,41.73c8.11-1.23,12.39-1.67,19.56-2.23"/>
		</g>
		<g id="kvg:095a7-g3" kvg:position="right">
			<path id="kvg:095a7-s5" kvg:type="㇑" d="M64.44,14.01c0.44,0.55,0.88,1.74,0.88,2.48c0,0.74,0.35,23.04,0.5,23.78"/>
			<path id="kvg:095a7-s6" kvg:type="㇆a" d="M66.05,15.16c2.49-0.11,19.71-2.79,21.99-2.92c1.9-0.11,2.98,1.15,2.97,1.8c-0.49,19.46-0.48,64.29-0.5,78.4c-0.01,11.06-6.45,2.16-7.9,0.86"/>
			<path id="kvg:095a7-s7" kvg:type="㇐a" d="M65.49,26.22c3.38,0,21.09-1.74,24.9-1.74"/>
			<path id="kvg:095a7-s8" kvg:type="㇐a" d="M66.05,37.76c4.99,0,18.09-1.06,24.55-1.06"/>
		</g>
	</g>
	<g id="kvg:095a7-g4" kvg:element="共">
		<g id="kvg:095a7-g5" kvg:position="top">
			<path id="kvg:095a7-s9" kvg:type="㇐" d="M34.11,56.23c1.02,0.21,2.89,0.21,3.91,0.21c7.54,0.06,27.73-2.19,35.36-2.78c1.7-0.13,2.72,0.1,3.57,0.21"/>
			<path id="kvg:095a7-s10" kvg:type="㇑a" d="M43.58,48.09c0.63,0.29,1.09,1.29,1.14,1.89c0.53,6.27,1.83,16.56,2.12,21.36"/>
			<path id="kvg:095a7-s11" kvg:type="㇑a" d="M63.4,45.25c0.63,0.29,1.16,1.29,1.14,1.89c-0.34,7.98-1.29,13.86-2.56,22.68"/>
			<path id="kvg:095a7-s12" kvg:type="㇐" d="M31.08,72.43c1.33,0.28,3.77,0.41,5.09,0.28c9.58-0.95,26.76-2.55,37.86-2.8c2.21-0.05,3.54,0.13,4.65,0.27"/>
		</g>
		<g id="kvg:095a7-g6" kvg:element="八" kvg:position="bottom">
			<path id="kvg:095a7-s13" kvg:type="㇒" d="M46.39,77.95c0.04,0.32,0.08,0.83-0.07,1.3c-0.91,2.74-6.89,8.03-13.27,12.43"/>
			<path id="kvg:095a7-s14" kvg:type="㇔" d="M62.77,78.33c4.44,2.36,11.47,9.72,12.58,13.39"/>
		</g>
	</g>
</g>
</g>
</svg>
