<?xml version="1.0" encoding="UTF-8"?>
<!--
Copyright (C) 2009/2010/2011 Ulrich Apel.
This work is distributed under the conditions of the Creative Commons
Attribution-Share Alike 3.0 Licence. This means you are free:
* to Share - to copy, distribute and transmit the work
* to Remix - to adapt the work

Under the following conditions:
* Attribution. You must attribute the work by stating your use of KanjiVG in
  your own copyright header and linking to KanjiVG's website
  (http://kanjivg.tagaini.net)
* Share Alike. If you alter, transform, or build upon this work, you may
  distribute the resulting work only under the same or similar license to this
  one.

See http://creativecommons.org/licenses/by-sa/3.0/ for more details.
-->
<!DOCTYPE svg PUBLIC "-//W3C//DTD SVG 1.0//EN" "http://www.w3.org/TR/2001/REC-SVG-20010904/DTD/svg10.dtd" [
<!ATTLIST g
xmlns:kvg CDATA #FIXED "http://kanjivg.tagaini.net"
kvg:element CDATA #IMPLIED
kvg:variant CDATA #IMPLIED
kvg:partial CDATA #IMPLIED
kvg:original CDATA #IMPLIED
kvg:part CDATA #IMPLIED
kvg:number CDATA #IMPLIED
kvg:tradForm CDATA #IMPLIED
kvg:radicalForm CDATA #IMPLIED
kvg:position CDATA #IMPLIED
kvg:radical CDATA #IMPLIED
kvg:phon CDATA #IMPLIED >
<!ATTLIST path
xmlns:kvg CDATA #FIXED "http://kanjivg.tagaini.net"
kvg:type CDATA #IMPLIED >
]>
<svg xmlns="http://www.w3.org/2000/svg" width="109" height="109" viewBox="0 0 109 109">
<g id="kvg:StrokePaths_09c10" style="fill:none;stroke:#000000;stroke-width:3;stroke-linecap:round;stroke-linejoin:round;">
<g id="kvg:09c10" kvg:element="鰐">
	<g id="kvg:09c10-g1" kvg:element="魚" kvg:position="left" kvg:radical="general">
		<g id="kvg:09c10-g2" kvg:element="𠂊" kvg:variant="true" kvg:original="勹" kvg:position="top">
			<path id="kvg:09c10-s1" kvg:type="㇒" d="M26.49,12.25c0.04,0.56,0.09,1.45-0.08,2.26c-1,4.76-6.77,15.21-14.67,21.61"/>
			<path id="kvg:09c10-s2" kvg:type="㇇" d="M24.39,19.88c1.93,0,14.82-2.94,16.85-3.23c1.74-0.25,2.63,1.17,1.91,2.4C40.09,24.24,36,30,31.69,38.95"/>
		</g>
		<g id="kvg:09c10-g3" kvg:position="bottom">
			<g id="kvg:09c10-g4" kvg:element="田">
				<path id="kvg:09c10-s3" kvg:type="㇑" d="M14.22,42.39c0.21,0.46,0.21,0.77,0.33,1.35c0.95,4.72,3.46,17.14,4.05,25.95"/>
				<path id="kvg:09c10-s4" kvg:type="㇕a" d="M15.21,43.52c7.37-1.19,20.97-3.21,26.47-4.21c2.02-0.37,4.06,1.43,3.95,2.73c-0.38,4.76-2.67,16.26-4.29,25.17"/>
				<path id="kvg:09c10-s5" kvg:type="㇑a" d="M29.02,41.73c0.83,0.59,1.47,2.51,1.5,4.04c0.11,6.73,0.02,16.27,0.02,19.6"/>
				<path id="kvg:09c10-s6" kvg:type="㇐a" d="M18.05,55.23c2.4-0.46,23.49-2.87,25.48-3.06"/>
				<path id="kvg:09c10-s7" kvg:type="㇐a" d="M18.99,68.4c5.31-0.51,13.88-1.62,21.21-2.45"/>
			</g>
			<g id="kvg:09c10-g5" kvg:element="灬" kvg:variant="true" kvg:original="火">
				<path id="kvg:09c10-s8" kvg:type="㇔" d="M15.14,80.82c0,5.32-2.15,13.16-2.72,14.68"/>
				<path id="kvg:09c10-s9" kvg:type="㇔" d="M24.14,79.83c1.3,2.36,2.54,8.87,2.87,12.54"/>
				<path id="kvg:09c10-s10" kvg:type="㇔" d="M32.84,77.94c1.9,2.07,4.92,8.5,5.4,11.71"/>
				<path id="kvg:09c10-s11" kvg:type="㇔" d="M43.05,76.37c2.28,2.08,5.88,8.55,6.45,11.78"/>
			</g>
		</g>
	</g>
	<g id="kvg:09c10-g6" kvg:element="咢" kvg:position="right">
		<g id="kvg:09c10-g7" kvg:position="top">
			<g id="kvg:09c10-g8" kvg:element="口" kvg:position="left">
				<path id="kvg:09c10-s12" kvg:type="㇑" d="M49.67,17.45c0.25,0.32,0.84,1.54,0.95,1.94c0.86,3.17,2.51,9.41,3.1,15.1"/>
				<path id="kvg:09c10-s13" kvg:type="㇕b" d="M51.22,18.6c7.03-1.85,14.15-2.22,15.38-2.4c1.07-0.15,1.71,0.9,1.55,1.8c-0.63,3.7-1.37,8.17-2.31,13.29"/>
				<path id="kvg:09c10-s14" kvg:type="㇐b" d="M54.39,32.73c3.43-0.47,8.7-0.78,13.41-1.51"/>
			</g>
			<g id="kvg:09c10-g9" kvg:element="口" kvg:position="right">
				<path id="kvg:09c10-s15" kvg:type="㇑" d="M75.46,15.06c0.29,0.32,0.59,0.59,0.71,0.99c1,3.17,2.47,10.83,3.16,16.53"/>
				<path id="kvg:09c10-s16" kvg:type="㇕b" d="M76.66,16.68c6.95-1.73,12.87-2.03,16.26-2.44c1.24-0.15,1.99,0.9,1.81,1.8c-0.74,3.7-1.94,7.72-3.03,12.84"/>
				<path id="kvg:09c10-s17" kvg:type="㇐b" d="M79.47,30.34c3.99-0.47,7.88-0.28,13.36-1.01"/>
			</g>
		</g>
		<g id="kvg:09c10-g10" kvg:position="bottom">
			<g id="kvg:09c10-g11" kvg:element="二">
				<g id="kvg:09c10-g12" kvg:position="top">
					<path id="kvg:09c10-s18" kvg:type="㇐" d="M55.28,42.57c0.78,0.42,2.21,0.49,2.99,0.42c6.59-0.6,23.97-3.64,28.79-3.14c1.3,0.13,2.08,0.2,2.73,0.41"/>
				</g>
				<g id="kvg:09c10-g13" kvg:position="bottom">
					<path id="kvg:09c10-s19" kvg:type="㇐" d="M50,53.83c1.11,0.52,3.14,0.64,4.25,0.52c11.08-1.19,26.95-2.62,39.12-3.33c1.84-0.11,2.95,0.25,3.88,0.51"/>
				</g>
			</g>
			<path id="kvg:09c10-s20" kvg:type="㇉" d="M63.45,54.16c0.91,1.43,1.34,2.34,0.62,3.85c-0.57,1.21-4.75,7.34-5.12,7.93c-1.47,2.36-0.5,2.97,1.44,2.99c1.22,0.02,21.1-3.26,24.22-3.91c2.43-0.51,3.74,0.71,3.48,3.28c-0.73,7.11-5.84,20.2-12.12,27.81c-3.41,4.13-4.7-1.21-5.5-2.46"/>
		</g>
	</g>
</g>
</g>
</svg>
